<svg width="595" height="766" viewBox="0 0 595 766" fill="none" xmlns="http://www.w3.org/2000/svg">
<path fill-rule="evenodd" clip-rule="evenodd" d="M83 446L98.5 482.5L119.5 608L246.5 690L405 582L481.5 387L457 383L431.5 404.5L377.5 421L328 427L317.5 306L251 233.5L231.5 225.5L243 343L150.5 450L83 446ZM173 602.5L150.5 512L251 596L173 602.5ZM369 492.5L284 589.5L373 570.5L369 492.5Z" fill="black"/>
<path fill-rule="evenodd" clip-rule="evenodd" d="M33.5 387L83 628L244 743L457 589.5L551 343L503 301L475.5 306L481.5 337.5L390 376L369 343V280L213 126.5V87L173 146L199.5 306L133 399L33.5 387ZM98.5 614L61.5 406.5L137.5 423L150.5 413.5L225 306L213 167.5L342 280L350.5 399L365.5 413.5L487 356.5H511.5L503 421L434 579L255 709.5L98.5 614Z" fill="black"/>
<path fill-rule="evenodd" clip-rule="evenodd" d="M61.5 406.5L98.5 614L255 709.5L434 579L503 421L511.5 356.5H487L365.5 413.5L350.5 399L342 280L213 167.5L225 306L150.5 413.5L137.5 423L61.5 406.5ZM98.5 482.5L83 446L150.5 450L243 343L231.5 225.5L251 233.5L317.5 306L328 427L377.5 421L431.5 404.5L457 383L481.5 387L405 582L246.5 690L119.5 608L98.5 482.5Z" fill="#DF4909"/>
<path d="M150.5 512L173 602.5L251 596L150.5 512Z" fill="#DF4909"/>
<path d="M284 589.5L369 492.5L373 570.5L284 589.5Z" fill="#DF4909"/>
</svg>
